<?xml version="1.0" encoding="utf-8"?>
<!-- Generator: Adobe Illustrator 16.0.3, SVG Export Plug-In . SVG Version: 6.00 Build 0)  -->
<!DOCTYPE svg PUBLIC "-//W3C//DTD SVG 1.1//EN" "http://www.w3.org/Graphics/SVG/1.1/DTD/svg11.dtd">
<svg version="1.1" id="Layer_1" xmlns="http://www.w3.org/2000/svg" xmlns:xlink="http://www.w3.org/1999/xlink" x="0px" y="0px"
	 width="512px" height="512px" viewBox="0 0 512 512" enable-background="new 0 0 512 512" xml:space="preserve">
<g>
	<g>
		<g>
			<path fill="#156A56" d="M265.871,136.978c0.006,0,0.014-0.006,0.021-0.006c0,0,0.013-0.014,0.02-0.014L265.871,136.978z"/>
		</g>
	</g>
	<g>
		<g>
			<path fill="#156A56" d="M265.877,136.978c0.007,0,0.014-0.006,0.02-0.006c0.007,0,0.014-0.014,0.021-0.021L265.877,136.978z"/>
		</g>
	</g>
	<g>
		<g>
			<path fill="#156A56" d="M265.871,136.978c0.006,0,0.014,0,0.021-0.006c0,0,0.013-0.014,0.02-0.014L265.871,136.978z"/>
		</g>
	</g>
</g>
<g>
	<g>
		<g>
			<g>
				<path fill="#156A56" d="M265.871,136.978c0.006,0,0.014-0.006,0.014-0.006s0.02-0.014,0.026-0.014L265.871,136.978z"/>
			</g>
		</g>
		<g>
			<g>
				<path fill="#156A56" d="M265.877,136.978c0.008,0,0.015-0.006,0.021-0.006c0,0,0.014-0.014,0.021-0.021L265.877,136.978z"/>
			</g>
		</g>
		<g>
			<g>
				<path fill="#156A56" d="M265.871,136.978c0.006,0,0.014,0,0.021-0.006c0,0,0.013-0.014,0.02-0.014L265.871,136.978z"/>
			</g>
		</g>
	</g>
	<g>
		<g>
			<path fill="#292929" d="M349.891,405.715l-6.128-11.871c23.566-12.196,43.903-30.044,58.791-51.619l10.995,7.586
				C397.418,373.191,375.397,392.52,349.891,405.715z"/>
		</g>
		<path fill="#292929" d="M325.281,380.504c-8.08,3.702-34.748,15.865-42.855,19.568c-13.647,6.227-19.658,22.362-13.421,36.02
			c6.211,13.643,22.359,19.664,36.013,13.43c8.101-3.699,34.756-15.865,42.85-19.578c13.667-6.237,19.685-22.359,13.457-36.02
			C355.087,380.277,338.955,374.256,325.281,380.504z"/>
	</g>
</g>
</svg>
