<?xml version="1.0" encoding="utf-8"?>
<!-- Generator: Adobe Illustrator 16.0.3, SVG Export Plug-In . SVG Version: 6.00 Build 0)  -->
<!DOCTYPE svg PUBLIC "-//W3C//DTD SVG 1.1//EN" "http://www.w3.org/Graphics/SVG/1.1/DTD/svg11.dtd">
<svg version="1.1" id="Layer_1" xmlns="http://www.w3.org/2000/svg" xmlns:xlink="http://www.w3.org/1999/xlink" x="0px" y="0px"
	 width="512px" height="512px" viewBox="0 0 512 512" enable-background="new 0 0 512 512" xml:space="preserve">
<g>
	<g>
		<g>
			<g>
				<path fill="#156A56" d="M265.871,136.978c0.006,0,0.014-0.006,0.014-0.006s0.02-0.014,0.026-0.014L265.871,136.978z"/>
			</g>
		</g>
		<g>
			<g>
				<path fill="#156A56" d="M265.877,136.978c0.008,0,0.015-0.006,0.021-0.006c0,0,0.014-0.014,0.021-0.021L265.877,136.978z"/>
			</g>
		</g>
		<g>
			<g>
				<path fill="#156A56" d="M265.871,136.978c0.006,0,0.014,0,0.021-0.006c0,0,0.013-0.014,0.02-0.014L265.871,136.978z"/>
			</g>
		</g>
	</g>
	<g>
		<g id="headset_4_">
			<g>
				<path fill="#292929" d="M122.577,353.885c-0.04-0.129-4.495-6.789-9.851-18.494c-0.02-0.119,0-0.219-0.02-0.338
					c-0.066-0.273-15.823-31.34-16.918-76.498c-0.033-0.904-0.049-1.811-0.059-2.721c0-0.716-0.011-1.432-0.011-2.137
					c0-0.738,0.011-1.447,0.011-2.167c0.01-0.19,0.01-0.383,0.01-0.583l0,0c0.646-46.313,16.9-78.33,16.967-78.609
					c1.174-5.652-4.531-11.029-9.285-10.813c-1.87,0.09-3.593,0.732-5.057,1.771c-0.33,0.222-34.613,22.555-35.808,23.375
					c-4.165,2.821-18.684,25.006-15.922,78.926c2.725,53.918,19.462,78.141,24.226,80.699c1.345,0.732,38.625,18.537,39.187,18.773
					c1.432,0.635,3.001,0.932,4.625,0.788C119.399,365.436,124.4,359.338,122.577,353.885z"/>
				<g>
					<path fill="#292929" d="M389.47,357.049c0.043-0.133,4.505-6.779,9.848-18.51c0.013-0.106,0-0.213,0.013-0.319
						c0.066-0.3,15.84-31.346,16.938-76.511c0.017-0.905,0.047-1.811,0.047-2.729c0.009-0.705,0.009-1.414,0.009-2.129
						c0-0.726,0-1.444-0.009-2.166c0-0.183,0-0.376,0-0.576l0,0c-0.655-46.309-16.918-78.328-16.984-78.617
						c-1.15-5.65,4.555-11.023,9.269-10.801c1.887,0.081,3.619,0.727,5.094,1.768c0.31,0.213,34.592,22.553,35.797,23.369
						c4.155,2.82,18.674,25.018,15.942,78.927c-2.745,53.915-19.495,78.144-24.236,80.696c-1.364,0.732-38.642,18.533-39.184,18.779
						c-1.446,0.635-3.011,0.915-4.628,0.782C392.664,368.6,387.646,362.492,389.47,357.049z"/>
				</g>
			</g>
			<path fill="#292929" d="M111,174.533c30.773-40.916,73.094-73.625,145.033-74.822c71.93,1.197,112.174,33.906,142.967,74.822h12
				c-40.803-66.621-92.698-96.962-151.713-99.022v-0.155c-1.098,0-2.183,0.055-3.254,0.07c-1.085-0.016-2.195-0.07-3.257-0.07
				l-0.011,0.155C193.745,77.571,142.82,107.917,102,174.533H111z"/>
		</g>
	</g>
</g>
</svg>
