<?xml version="1.0" encoding="utf-8"?>
<!-- Generator: Adobe Illustrator 16.0.3, SVG Export Plug-In . SVG Version: 6.00 Build 0)  -->
<!DOCTYPE svg PUBLIC "-//W3C//DTD SVG 1.1//EN" "http://www.w3.org/Graphics/SVG/1.1/DTD/svg11.dtd">
<svg version="1.1" xmlns="http://www.w3.org/2000/svg" xmlns:xlink="http://www.w3.org/1999/xlink" x="0px" y="0px" width="512px"
	 height="512px" viewBox="0 0 512 512" enable-background="new 0 0 512 512" xml:space="preserve">
<g id="Layer_3">
</g>
<g id="Layer_2">
</g>
<g id="Layer_1">
	<g opacity="0.7">
		<path fill="#FFFFFF" d="M99.493,190.758l89.248-89.247C148.969,118.641,116.766,150.562,99.493,190.758z"/>
		<path fill="#FFFFFF" d="M426.049,268.201c0.605-10.126,0.309-20.096-0.811-29.834l-188.851,188.85
			c3.145,0.361,6.314,0.646,9.513,0.836c13.452,0.803,26.629,0.016,39.354-2.186l138.568-138.568
			C424.904,281.05,425.661,274.681,426.049,268.201z"/>
		<path fill="#FFFFFF" d="M327.257,103.285c-11.26-5.186-23.202-9.188-35.681-11.838L89.42,293.604
			c2.644,12.418,6.646,24.362,11.858,35.66L327.257,103.285z"/>
		<path fill="#FFFFFF" d="M266.158,88.01c-15.248-0.916-30.144,0.218-44.431,3.142L89.179,223.701
			c-1.606,7.859-2.688,15.925-3.18,24.166c-0.527,8.836-0.371,17.556,0.423,26.106L271.931,88.465
			C270.016,88.285,268.093,88.126,266.158,88.01z"/>
		<path fill="#FFFFFF" d="M421.877,219.1c-2.867-12.236-7.059-23.988-12.429-35.09L181.987,411.471
			c11.067,5.344,22.821,9.533,35.118,12.401L421.877,219.1z"/>
		<path fill="#FFFFFF" d="M415.35,318.399l-98.953,98.952C361.652,400.184,398.022,364.196,415.35,318.399z"/>
		<path fill="#FFFFFF" d="M401.461,169.37c-5.917-9.686-12.774-18.751-20.463-27.055L140.295,383.018
			c8.28,7.677,17.338,14.54,27.048,20.471L401.461,169.37z"/>
		<path fill="#FFFFFF" d="M369.589,131.098c-8.429-7.548-17.622-14.279-27.465-20.054L109.041,344.128
			c5.761,9.817,12.483,19.02,20.044,27.474L369.589,131.098z"/>
	</g>
</g>
</svg>
