<?xml version="1.0" encoding="utf-8"?>
<!-- Generator: Adobe Illustrator 19.1.0, SVG Export Plug-In . SVG Version: 6.00 Build 0)  -->
<svg version="1.1" xmlns="http://www.w3.org/2000/svg" xmlns:xlink="http://www.w3.org/1999/xlink" x="0px" y="0px"
	 viewBox="0 0 512 512" enable-background="new 0 0 512 512" xml:space="preserve">
<g id="Layer_3">
</g>
<g id="Layer_2">
</g>
<g id="Layer_1">
	<g>
		<g>
			<g>
				<circle fill="#EC1C24" cx="153.5" cy="134.002" r="70"/>
			</g>
		</g>
		<rect x="97.388" y="121.852" fill="#FFFFFF" width="112.23" height="24.295"/>
	</g>
	<g>
		<g>
			<g>
				<path fill="#292929" d="M153.503,64c38.659,0,69.997,31.342,69.997,70.002c0,38.659-31.338,69.998-69.997,69.998
					S83.5,172.661,83.5,134.002C83.5,95.342,114.844,64,153.503,64 M153.503,53.289c-44.506,0-80.714,36.208-80.714,80.713
					c0,44.503,36.208,80.709,80.714,80.709c44.503,0,80.708-36.206,80.708-80.709C234.211,89.497,198.005,53.289,153.503,53.289
					L153.503,53.289z"/>
			</g>
		</g>
	</g>
</g>
</svg>
