<?xml version="1.0" encoding="utf-8"?>
<!-- Generator: Adobe Illustrator 19.1.0, SVG Export Plug-In . SVG Version: 6.00 Build 0)  -->
<svg version="1.1" xmlns="http://www.w3.org/2000/svg" xmlns:xlink="http://www.w3.org/1999/xlink" x="0px" y="0px"
	 viewBox="0 0 512 512" enable-background="new 0 0 512 512" xml:space="preserve">
<g id="Layer_3">
</g>
<g id="Layer_2">
</g>
<g id="Layer_1">
	<g>
		<g>
			<g>
				<path fill="#29ABE2" d="M89.824,436.5c-5.142,0-9.324-4.183-9.324-9.324V322.824c0-5.142,4.183-9.324,9.324-9.324h135.352
					c5.142,0,9.324,4.183,9.324,9.324v104.352c0,5.142-4.183,9.324-9.324,9.324H89.824z"/>
				<g>
					<path fill="#292929" d="M225.176,319c2.103,0,3.824,1.721,3.824,3.824v104.352c0,2.103-1.721,3.824-3.824,3.824H89.824
						c-2.103,0-3.824-1.721-3.824-3.824V322.824c0-2.103,1.721-3.824,3.824-3.824H225.176 M225.176,308H89.824
						C81.65,308,75,314.65,75,322.824v104.352C75,435.35,81.65,442,89.824,442h135.352c8.174,0,14.824-6.65,14.824-14.824V322.824
						C240,314.65,233.35,308,225.176,308L225.176,308z"/>
				</g>
			</g>
			<rect x="100" y="361" fill="#FFFFFF" width="115" height="46"/>
		</g>
	</g>
</g>
</svg>
