<?xml version="1.0" encoding="utf-8"?>
<!-- Generator: Adobe Illustrator 16.0.3, SVG Export Plug-In . SVG Version: 6.00 Build 0)  -->
<!DOCTYPE svg PUBLIC "-//W3C//DTD SVG 1.1//EN" "http://www.w3.org/Graphics/SVG/1.1/DTD/svg11.dtd">
<svg version="1.1" id="Layer_1" xmlns="http://www.w3.org/2000/svg" xmlns:xlink="http://www.w3.org/1999/xlink" x="0px" y="0px"
	 width="512px" height="512px" viewBox="0 0 512 512" enable-background="new 0 0 512 512" xml:space="preserve">
<g>
	<g>
		<g>
			<g>
				<g>
					<g>
						<path fill="#292929" d="M371.664,184.945l-28.623-8.73V44.517c0-1.405-1.914-3.317-4.254-3.317h-4.254
							c-2.342,0-4.256,1.912-4.256,3.317v131.7l-28.619,8.727c-2.236,0.685-3.504,3.077-2.816,5.317l1.25,4.065
							c0.686,2.237,3.078,3.505,5.314,2.82l31.258-8.603l31.248,8.603c2.24,0.685,4.633-0.583,5.32-2.82l1.246-4.065
							C375.168,188.023,373.9,185.631,371.664,184.945z"/>
					</g>
				</g>
				
					<rect x="262.193" y="54.057" fill="#FFFEEB" stroke="#292929" stroke-width="12" stroke-linecap="round" stroke-linejoin="round" stroke-miterlimit="10" width="148.936" height="98.062"/>
				<polygon fill="#292929" points="421.328,47.503 251.994,47.503 249.193,53.103 251.994,61.503 421.328,61.503 424.129,53.103 
									"/>
			</g>
		</g>
	</g>
	<rect fill="none" width="512" height="512"/>
</g>
</svg>
