<?xml version="1.0" encoding="utf-8"?>
<!-- Generator: Adobe Illustrator 16.0.3, SVG Export Plug-In . SVG Version: 6.00 Build 0)  -->
<!DOCTYPE svg PUBLIC "-//W3C//DTD SVG 1.1//EN" "http://www.w3.org/Graphics/SVG/1.1/DTD/svg11.dtd">
<svg version="1.1" id="Layer_1" xmlns="http://www.w3.org/2000/svg" xmlns:xlink="http://www.w3.org/1999/xlink" x="0px" y="0px"
	 width="512px" height="512px" viewBox="0 0 512 512" enable-background="new 0 0 512 512" xml:space="preserve">
<g>
	<rect x="37.996" y="40" fill="none" width="436.055" height="436.049"/>
	<rect x="37.996" y="40" fill="none" width="436.055" height="436.049"/>
	<rect x="37.996" y="40" fill="none" width="436.055" height="436.049"/>
	<rect x="37.996" y="40" fill="none" width="436.055" height="436.046"/>
	<g>
		<rect x="37.996" y="40" fill="none" width="436.055" height="436.049"/>
		<rect x="37.996" y="40" fill="none" width="436.055" height="436.049"/>
		<rect x="37.996" y="40" fill="none" width="436.055" height="436.049"/>
		<g>
			<path fill="#7FD916" d="M158.075,436.645c-33.481,0-60.72-27.182-60.72-60.593c0-33.468,27.239-60.696,60.72-60.696
				c33.398,0,60.569,27.228,60.569,60.696C218.645,409.463,191.473,436.645,158.075,436.645z"/>
			<path fill="#292929" d="M158.075,320.711c30.445,0,55.214,24.826,55.214,55.341c0,30.458-24.769,55.237-55.214,55.237
				c-30.528,0-55.364-24.779-55.364-55.237C102.711,345.537,127.547,320.711,158.075,320.711 M158.075,310
				C121.614,310,92,339.568,92,376.052C92,412.505,121.614,442,158.075,442C194.503,442,224,412.505,224,376.052
				C224,339.568,194.503,310,158.075,310L158.075,310z"/>
		</g>
	</g>
</g>
</svg>
